{
	"patcher" : 	{
		"fileversion" : 1,
		"appversion" : 		{
			"major" : 7,
			"minor" : 3,
			"revision" : 4,
			"architecture" : "x64",
			"modernui" : 1
		}
,
		"rect" : [ 354.0, 126.0, 828.0, 767.0 ],
		"bglocked" : 0,
		"openinpresentation" : 0,
		"default_fontsize" : 12.0,
		"default_fontface" : 0,
		"default_fontname" : "Lato",
		"gridonopen" : 1,
		"gridsize" : [ 15.0, 15.0 ],
		"gridsnaponopen" : 1,
		"objectsnaponopen" : 1,
		"statusbarvisible" : 2,
		"toolbarvisible" : 1,
		"lefttoolbarpinned" : 0,
		"toptoolbarpinned" : 0,
		"righttoolbarpinned" : 0,
		"bottomtoolbarpinned" : 0,
		"toolbars_unpinned_last_save" : 0,
		"tallnewobj" : 0,
		"boxanimatetime" : 200,
		"enablehscroll" : 1,
		"enablevscroll" : 1,
		"devicewidth" : 0.0,
		"description" : "",
		"digest" : "",
		"tags" : "",
		"style" : "",
		"subpatcher_template" : "",
		"boxes" : [ 			{
				"box" : 				{
					"id" : "obj-58",
					"maxclass" : "number",
					"numinlets" : 1,
					"numoutlets" : 2,
					"outlettype" : [ "", "bang" ],
					"parameter_enable" : 0,
					"patching_rect" : [ 702.0, 214.0, 50.0, 23.0 ],
					"style" : ""
				}

			}
, 			{
				"box" : 				{
					"id" : "obj-57",
					"maxclass" : "newobj",
					"numinlets" : 6,
					"numoutlets" : 1,
					"outlettype" : [ "" ],
					"patching_rect" : [ 583.75, 263.5, 89.0, 23.0 ],
					"style" : "",
					"text" : "scale 0. 1. 1 11"
				}

			}
, 			{
				"box" : 				{
					"id" : "obj-56",
					"maxclass" : "message",
					"numinlets" : 2,
					"numoutlets" : 1,
					"outlettype" : [ "" ],
					"patching_rect" : [ 580.650024, 303.5, 66.0, 23.0 ],
					"style" : "",
					"text" : "repeats $1"
				}

			}
, 			{
				"box" : 				{
					"id" : "obj-55",
					"maxclass" : "number",
					"numinlets" : 1,
					"numoutlets" : 2,
					"outlettype" : [ "", "bang" ],
					"parameter_enable" : 0,
					"patching_rect" : [ 657.0, 47.0, 50.0, 23.0 ],
					"style" : ""
				}

			}
, 			{
				"box" : 				{
					"id" : "obj-53",
					"maxclass" : "newobj",
					"numinlets" : 6,
					"numoutlets" : 1,
					"outlettype" : [ "" ],
					"patching_rect" : [ 361.5, 169.0, 95.0, 23.0 ],
					"style" : "",
					"text" : "scale 0. 1. 1. 20."
				}

			}
, 			{
				"box" : 				{
					"id" : "obj-52",
					"maxclass" : "newobj",
					"numinlets" : 6,
					"numoutlets" : 1,
					"outlettype" : [ "" ],
					"patching_rect" : [ 569.75, 155.0, 95.0, 23.0 ],
					"style" : "",
					"text" : "scale 0. 1. 1. 50."
				}

			}
, 			{
				"box" : 				{
					"id" : "obj-51",
					"maxclass" : "message",
					"numinlets" : 2,
					"numoutlets" : 1,
					"outlettype" : [ "" ],
					"patching_rect" : [ 580.650024, 195.5, 48.0, 23.0 ],
					"style" : "",
					"text" : "rate $1"
				}

			}
, 			{
				"box" : 				{
					"format" : 6,
					"id" : "obj-49",
					"maxclass" : "flonum",
					"numinlets" : 1,
					"numoutlets" : 2,
					"outlettype" : [ "", "bang" ],
					"parameter_enable" : 0,
					"patching_rect" : [ 382.75, 120.0, 50.0, 23.0 ],
					"style" : ""
				}

			}
, 			{
				"box" : 				{
					"id" : "obj-46",
					"maxclass" : "message",
					"numinlets" : 2,
					"numoutlets" : 1,
					"outlettype" : [ "" ],
					"patching_rect" : [ 371.0, 200.5, 76.0, 23.0 ],
					"style" : "",
					"text" : "crossings $1"
				}

			}
, 			{
				"box" : 				{
					"id" : "obj-44",
					"maxclass" : "comment",
					"numinlets" : 1,
					"numoutlets" : 0,
					"patching_rect" : [ 386.0, 52.0, 104.0, 21.0 ],
					"style" : "",
					"text" : "One-knob control"
				}

			}
, 			{
				"box" : 				{
					"floatoutput" : 1,
					"id" : "obj-40",
					"maxclass" : "slider",
					"numinlets" : 1,
					"numoutlets" : 1,
					"outlettype" : [ "" ],
					"parameter_enable" : 0,
					"patching_rect" : [ 382.75, 79.5, 189.0, 32.5 ],
					"size" : 1.0,
					"style" : ""
				}

			}
, 			{
				"box" : 				{
					"bufsize" : 256,
					"calccount" : 2,
					"id" : "obj-24",
					"maxclass" : "scope~",
					"numinlets" : 2,
					"numoutlets" : 0,
					"patching_rect" : [ 79.25, 575.5, 487.5, 158.5 ],
					"style" : "",
					"trigger" : 1
				}

			}
, 			{
				"box" : 				{
					"fontface" : 3,
					"fontname" : "Lato",
					"fontsize" : 14.0,
					"id" : "obj-15",
					"maxclass" : "comment",
					"numinlets" : 1,
					"numoutlets" : 0,
					"patching_rect" : [ 34.0, 143.0, 98.0, 23.0 ],
					"style" : "",
					"text" : "Recording:"
				}

			}
, 			{
				"box" : 				{
					"fontface" : 3,
					"fontname" : "Lato",
					"fontsize" : 14.0,
					"id" : "obj-9",
					"maxclass" : "comment",
					"numinlets" : 1,
					"numoutlets" : 0,
					"patching_rect" : [ 34.0, 314.0, 94.0, 23.0 ],
					"style" : "",
					"text" : "Playback:"
				}

			}
, 			{
				"box" : 				{
					"fontname" : "Lato",
					"fontsize" : 12.0,
					"id" : "obj-39",
					"maxclass" : "comment",
					"numinlets" : 1,
					"numoutlets" : 0,
					"patching_rect" : [ 218.0, 425.5, 223.0, 21.0 ],
					"style" : "",
					"text" : "Rate of playback (for non-pitched mode)"
				}

			}
, 			{
				"box" : 				{
					"fontname" : "Lato",
					"fontsize" : 12.0,
					"id" : "obj-38",
					"maxclass" : "comment",
					"numinlets" : 1,
					"numoutlets" : 0,
					"patching_rect" : [ 218.0, 398.5, 223.0, 21.0 ],
					"style" : "",
					"text" : "Number of playback repetitions"
				}

			}
, 			{
				"box" : 				{
					"fontname" : "Lato",
					"fontsize" : 12.0,
					"id" : "obj-37",
					"maxclass" : "comment",
					"numinlets" : 1,
					"numoutlets" : 0,
					"patching_rect" : [ 218.0, 252.5, 223.0, 21.0 ],
					"style" : "",
					"text" : "Maximum length (samples) of segment"
				}

			}
, 			{
				"box" : 				{
					"fontname" : "Lato",
					"fontsize" : 12.0,
					"id" : "obj-35",
					"maxclass" : "comment",
					"numinlets" : 1,
					"numoutlets" : 0,
					"patching_rect" : [ 218.0, 225.5, 272.0, 21.0 ],
					"style" : "",
					"text" : "Number of positive zero-crossings per segment"
				}

			}
, 			{
				"box" : 				{
					"args" : [ "@module", 0, "@file", "cherokee.aif", "@loop", 1, "@vol", 0 ],
					"bgmode" : 0,
					"border" : 0,
					"clickthrough" : 0,
					"enablehscroll" : 0,
					"enablevscroll" : 0,
					"id" : "obj-7",
					"lockeddragscroll" : 0,
					"maxclass" : "bpatcher",
					"name" : "demosound.maxpat",
					"numinlets" : 0,
					"numoutlets" : 1,
					"offset" : [ -4.0, -3.0 ],
					"outlettype" : [ "signal" ],
					"patching_rect" : [ 15.0, 48.0, 219.0, 89.0 ],
					"viewvisibility" : 1
				}

			}
, 			{
				"box" : 				{
					"fontsize" : 13.0,
					"id" : "obj-2",
					"maxclass" : "live.gain~",
					"numinlets" : 2,
					"numoutlets" : 5,
					"outlettype" : [ "signal", "signal", "", "float", "list" ],
					"parameter_enable" : 1,
					"patching_rect" : [ 15.0, 539.5, 42.0, 136.0 ],
					"presentation_rect" : [ 30.0, 30.0, 35.0, 50.0 ],
					"saved_attribute_attributes" : 					{
						"valueof" : 						{
							"parameter_longname" : "live.gain~",
							"parameter_shortname" : "live.gain~",
							"parameter_type" : 0,
							"parameter_mmin" : -70.0,
							"parameter_mmax" : 6.0,
							"parameter_initial_enable" : 1,
							"parameter_initial" : [ -70 ],
							"parameter_unitstyle" : 4
						}

					}
,
					"showname" : 0,
					"varname" : "live.gain~"
				}

			}
, 			{
				"box" : 				{
					"id" : "obj-4",
					"local" : 1,
					"maxclass" : "ezdac~",
					"numinlets" : 2,
					"numoutlets" : 0,
					"patching_rect" : [ 15.0, 690.0, 44.0, 44.0 ],
					"prototypename" : "helpfile",
					"style" : ""
				}

			}
, 			{
				"box" : 				{
					"fontface" : 3,
					"fontname" : "Lato",
					"fontsize" : 18.0,
					"id" : "obj-3",
					"maxclass" : "comment",
					"numinlets" : 1,
					"numoutlets" : 0,
					"patching_rect" : [ 15.0, 15.0, 505.0, 28.0 ],
					"style" : "",
					"text" : "Waveset segmentation & repeating playback"
				}

			}
, 			{
				"box" : 				{
					"fontname" : "Lato",
					"fontsize" : 12.0,
					"id" : "obj-1",
					"maxclass" : "newobj",
					"numinlets" : 1,
					"numoutlets" : 1,
					"outlettype" : [ "signal" ],
					"patcher" : 					{
						"fileversion" : 1,
						"appversion" : 						{
							"major" : 7,
							"minor" : 3,
							"revision" : 4,
							"architecture" : "x64",
							"modernui" : 1
						}
,
						"rect" : [ 850.0, 279.0, 1141.0, 728.0 ],
						"bgcolor" : [ 0.9, 0.9, 0.9, 1.0 ],
						"editing_bgcolor" : [ 0.9, 0.9, 0.9, 1.0 ],
						"bglocked" : 0,
						"openinpresentation" : 0,
						"default_fontsize" : 12.0,
						"default_fontface" : 0,
						"default_fontname" : "Lato",
						"gridonopen" : 1,
						"gridsize" : [ 15.0, 15.0 ],
						"gridsnaponopen" : 1,
						"objectsnaponopen" : 1,
						"statusbarvisible" : 2,
						"toolbarvisible" : 1,
						"lefttoolbarpinned" : 0,
						"toptoolbarpinned" : 0,
						"righttoolbarpinned" : 0,
						"bottomtoolbarpinned" : 0,
						"toolbars_unpinned_last_save" : 0,
						"tallnewobj" : 0,
						"boxanimatetime" : 200,
						"enablehscroll" : 1,
						"enablevscroll" : 1,
						"devicewidth" : 0.0,
						"description" : "",
						"digest" : "",
						"tags" : "",
						"style" : "",
						"subpatcher_template" : "",
						"boxes" : [ 							{
								"box" : 								{
									"fontname" : "Lato",
									"fontsize" : 12.0,
									"id" : "obj-3",
									"maxclass" : "newobj",
									"numinlets" : 1,
									"numoutlets" : 0,
									"patching_rect" : [ 13.0, 688.0, 37.0, 23.0 ],
									"style" : "",
									"text" : "out 1"
								}

							}
, 							{
								"box" : 								{
									"fontname" : "Lato",
									"fontsize" : 12.0,
									"id" : "obj-2",
									"maxclass" : "newobj",
									"numinlets" : 0,
									"numoutlets" : 1,
									"outlettype" : [ "" ],
									"patching_rect" : [ 13.0, 18.0, 198.0, 23.0 ],
									"style" : "",
									"text" : "in 1 @comment \"source to sample\""
								}

							}
, 							{
								"box" : 								{
									"code" : "/*\r\n\tWaveset chopper / repeater\r\n\r\n\tThis program divides the input into segments, and plays these segments back.\r\n\tIt could be seen as a time-domain, granular form of analysis/resynthesis.\r\n\t\r\n\tThe program contains a recording section, \r\n\t\twhich stores grains into a Data object (segment_data)\r\n\tand a playback section,\r\n\t\twhich selects and plays these grains one-by-one\r\n\t\r\n\tThe grains are not enveloped; \r\n\t\tinstead the input is segmented at points where the signal is rising and crosses zero\r\n\t\t\r\n\tA positive zero-crossing means that: \r\n\t\ta: previous sample is less than zero\r\n\t\tb: next sample is greater than zero\r\n\t\r\n\tFor pure sounds a segment corresponds to one or more wavecycles, \r\n\t\tbut for complex sounds it can be somewhat stochastic.\r\n\t\r\n\tRECORDING:\r\n\t\t\r\n\tSince waveforms rarely cross zero at an exact sample location, \r\n\t\tthe actual crossing is somewhere between a and b.\r\n\t\tThe program estimates this sub-sample crossing phase (and stores it in offset_data)\r\n\t\tIt also stores the sub-sample accurate segment length (in length_data)\r\n\t\t\r\n\tThe segment_data recorded includes the sample just before the first crossing,\r\n\t\tand the sample just after the last, in order to contain both actual crossings.\r\n\t\tI.e. each captured segment looks like [a1, b1, ... b2 a2 ... a3, b3]\r\n\t\r\n\tWhen a segment finishes recording, a new segment is chosen to write into (write_segment)\r\n\t\r\n\tPLAYBACK:\r\n\t\r\n\tThe playback section is continuously playing a segment (play_segment)\r\n\t\t\r\n\tPlayback includes additional calculations,\r\n \t\tto ensure the sub-sample phase offset is used and retained between segments\r\n\r\n\tWhen the segment playback is done (possibly after several repeats),\r\n\t\ta new segment is selected according to the current strategy (play_mode)\r\n\t\t\r\n\t\t\r\n\tGraham Wakefield 2012\r\n*/\r\n\r\n\r\n// the segment storage (each segment on its own channel):\r\nData segment_data(10004, 64);\r\n// the length of each segment (in samples):\r\nData length_data(64, 1);\r\n// each segment is also offset slightly (sub-sample phase delay):\r\nData offset_data(64, 1);\r\n// each segment also stores it's average energy (root-mean square):\r\nData rms_data(64, 1);\r\n\r\n// set to zero to disable new segment capture:\r\nParam capture(1, min=0, max=1);\r\n// how many zero crossings per segment:\r\nParam crossings(1, min=1);\r\n// the minimum & maximum length of a segment:\r\nParam max_length(500, min=16, max=10000);\r\nParam min_length(16, min=16, max=10000);\r\n// how many times a segment is played back:\r\nParam repeats(1, min=1);\r\n// hold the current playback segment:\r\nParam hold(0, min=0, max=1);\r\n// choose the strategy to play back grains:\r\nParam playmode(0, min=0, max=4);\r\n// choose how to select playback rates/pitches:\r\nParam pitchedmode(0, min=0, max=4);\r\n// playback frequency for pitchedmode enabled:\r\nParam freq(220, min=0);\r\n// playback rate for pitchedmode not enabled:\r\nParam rate(1, min=0);\r\n\r\n// the segment currently being written to:\r\nHistory write_segment(1);\r\n// the number of samples since the last capture:\r\nHistory write_index(0);\r\n// the number of rising zero-crossings since the last capture:\r\nHistory crossing_count(0);\r\n\r\n// the segment currently being played:\r\nHistory play_segment(0);\r\n// the sample index of playback:\r\nHistory play_index(0);\r\n// the length of the playing segment:\r\nHistory play_len(0);\r\n// the offset of the playing segment:\r\nHistory play_offset(0);\r\n// the loudness of the playing segment:\r\nHistory play_rms(0.1);\r\n// used to create smooth overlaps\r\nHistory prev_input;\r\n// used to accumulate the segment energy total:\r\nHistory energy_sum;\r\n\r\n// the total length of all segments\r\nHistory total_length;\r\n\r\n// the number of segments:\r\nnum_segments = channels(segment_data);\r\n\r\n\r\n\r\n// RECORDING SECTION:\r\n\r\n// DC blocking filter used to remove bias in the input:\r\nunbiased_input = dcblock(in1); \r\n// accumulate energy:\r\nenergy_sum = energy_sum + unbiased_input*unbiased_input;\r\n\r\n// update write index:\r\nwrite_index = write_index + 1;\r\n// always write input into current segment:\r\npoke(segment_data, unbiased_input, write_index, write_segment);\r\n\r\n// detect rising zero-crossing: \r\nis_crossing = change(unbiased_input > 0) > 0;\r\n// capture behavior is triggered on the rising zero-crossing:\r\nif (is_crossing) {\r\n\t\r\n\t// if the segment is too long, \r\n\tif (write_index > max_length) {\r\n\t\t// reset the counters\t\t\r\n\t\tcrossing_count = 0;\r\n\t\twrite_index = 0;\t\r\n\t\t\r\n\t} else {\r\n\t\t// count rising zero-crossings in this segment:\r\n\t\tcrossing_count = crossing_count + 1;\r\n\t\t\t\r\n\t\t// decide whether the segment is complete:\r\n\t\t// only when capture is enabled\r\n\t\t// only when enough zero-crossings have occurred\r\n\t\t// only when enough samples have elapsed\r\n\t\t// only when not too many samples have elapsed\r\n\t\tis_complete = (capture \r\n\t\t\t&& crossing_count >= crossings\r\n\t\t\t&& write_index >= min_length);\r\n\t\tif (is_complete) {\t\r\n\t\t\t\r\n\t\t\t// at what theoretical sample index did it cross?\r\n\t\t\t// estimate as linear intersection:\r\n\t\t\toffset = prev_input / (prev_input - unbiased_input);\r\n\t\t\t\r\n\t\t\t// compare the previous offset:\r\n\t\t\tprev_offset = peek(offset_data, write_segment, 0);\r\n\t\t\t\r\n\t\t\t// store segment length:\r\n\t\t\t// adjusted for the fractional component\r\n\t\t\t// minus one for the extra wrapping sample (a,b,...b,a,...,a,b)\r\n\t\t\tlen = write_index + offset - prev_offset - 1;\n\t\t\t// update total length:\r\n\t\t\tprev_length = peek(length_data, write_segment, 0);\n\t\t\ttotal_length = total_length - prev_length + len;\r\n\t\t\t// store new length:\n\t\t\tpoke(length_data, len, write_segment, 0);\r\n\t\t\t\r\n\t\t\t// store segment energy:\r\n\t\t\t// (root mean square, over number of samples measured)\r\n\t\t\trms = sqrt(energy_sum / floor(len));\r\n\t\t\tpoke(rms_data, rms, write_segment, 0);\r\n\t\t\t\r\n\t\t\t// reset counters:\r\n\t\t\tcrossing_count = 0;\r\n\t\t\tenergy_sum = 0;\r\n\t\t\t\r\n\t\t\t// switch to a new segment:\r\n\t\t\twrite_segment = wrap(write_segment + 1, 0, num_segments);\r\n\t\t\t// don't write into what is currently playing:\r\n\t\t\tif (write_segment == play_segment) {\r\n\t\t\t\twrite_segment = wrap(write_segment + 1, 0, num_segments);\r\n\t\t\t}\r\n\t\t\t\r\n\t\t\t// store the new offset:\r\n\t\t\tpoke(offset_data, offset, write_segment, 0);\r\n\t\t\t\r\n\t\t\t// write the previous & current (a,b) into the new segment:\r\n\t\t\tpoke(segment_data, prev_input, 0, write_segment);\r\n\t\t\tpoke(segment_data, unbiased_input, 1, write_segment);\r\n\t\t\twrite_index = 1;\r\n\t\t} \r\n\t}\r\n}\r\n\r\n// remember previous input:\r\nprev_input = unbiased_input;\r\n\r\n\r\n\r\n// PLAYBACK SECTION:\r\n\r\nr = rate;\r\n// update playback index:\r\nif (pitchedmode < 1) {\r\n\t// no change\r\n\t\r\n} else if (pitchedmode < 2) {\t\r\n\t// ascending:\r\n\td = play_index / play_len;\r\n\tr = rate * max(1, d);\r\n\t\r\n} else if (pitchedmode < 3) {\r\n\t// descending:\r\n\td = ceil(play_index / play_len);\r\n\tr = rate / max(1, d*d);\r\n\t\r\n} else {\r\n\t// try to play back at a chosen frequency\r\n\t// (compensating for estimated original sample frequency)\r\n\tr = freq * play_len / (samplerate * crossings);\r\n}\r\n// update playback index:\r\nplay_index = play_index + r;\r\n// actual play index needs to stay within len:\r\n// (can be fun to use wrap, fold or clip here)\r\nactual_play_index = wrap(play_index, 0, play_len);\r\n\r\n// play the current segment waveform:\r\n// (offset by the waveform zero-crossing position)\r\nout1 = peek(segment_data, play_offset + actual_play_index, play_segment, interp=\"linear\");\r\n\r\n// switch to a new segment?\r\nif (play_index >= play_len * floor(repeats)) {\r\n\t\r\n\t// reset to the current actual play position\r\n\tplay_index = actual_play_index;\r\n\t\r\n\tif (!hold) {\r\n\t\t// move to a new segment\r\n\t\t// some alternatives... \r\n\t\tif (playmode < 1) {\r\n\t\t\t\r\n\t\t\t// play in forward sequence\r\n\t\t\tplay_segment = wrap(play_segment + 1, 0, num_segments);\r\n\t\t\t// caveat: don't play what is currently being written:\r\n\t\t\tif (write_segment == play_segment) {\r\n\t\t\t\tplay_segment = wrap(write_segment + 1, 0, num_segments);\r\n\t\t\t}\r\n\t\t\t\r\n\t\t} else if (playmode < 2) {\r\n\t\t\t\r\n\t\t\t// play in reverse sequence\r\n\t\t\tplay_segment = wrap(play_segment - 1, 0, num_segments);\r\n\t\t\t// caveat: don't play what is currently being written:\r\n\t\t\tif (write_segment == play_segment) {\r\n\t\t\t\tplay_segment = wrap(write_segment - 1, 0, num_segments);\r\n\t\t\t}\r\n\t\t\t\r\n\t\t} else if (playmode < 3) {\r\n\t\t\t\r\n\t\t\t// choose direction by random walk:\r\n\t\t\tdirection = sign(noise());\r\n\t\t\tplay_segment = wrap(play_segment + direction, 0, num_segments);\r\n\t\t\t// caveat: don't play what is currently being written:\r\n\t\t\tif (write_segment == play_segment) {\r\n\t\t\t\tplay_segment = wrap(write_segment + direction, 0, num_segments);\r\n\t\t\t}\r\n\t\t\t\r\n\t\t} else if (playmode < 4) {\r\n\t\t\t\r\n\t\t\t// choose randomly:\r\n\t\t\tdirection = 1 + ceil(num_segments * (noise() + 1)/2);\r\n\t\t\tplay_segment = wrap(play_segment + direction, 0, num_segments);\r\n\t\t\t// caveat: don't play what is currently being written:\r\n\t\t\tif (write_segment == play_segment) {\r\n\t\t\t\tplay_segment = wrap(write_segment - 1, 0, num_segments);\r\n\t\t\t}\r\n\t\t\t\r\n\t\t} else {\r\n\t\t\t\r\n\t\t\t// play most recently recorded:\r\n\t\t\tplay_segment = wrap(write_segment - 1, 0, num_segments);\r\n\t\t\t\r\n\t\t} \r\n\t\t\r\n\t\t// get the new playback length\r\n\t\tplay_len = peek(length_data, play_segment, 0);\r\n\t\t// get the new playback offset\r\n\t\tplay_offset = peek(offset_data, play_segment, 0);\r\n\t\t// and the new playback loudness\r\n\t\tplay_rms = peek(rms_data, play_segment, 0);\r\n\t}\t\r\n} \r\n",
									"fontface" : 0,
									"fontname" : "Lato",
									"fontsize" : 12.0,
									"id" : "obj-1",
									"maxclass" : "codebox",
									"numinlets" : 1,
									"numoutlets" : 1,
									"outlettype" : [ "" ],
									"patching_rect" : [ 13.0, 49.0, 668.0, 626.0 ],
									"style" : ""
								}

							}
 ],
						"lines" : [ 							{
								"patchline" : 								{
									"destination" : [ "obj-3", 0 ],
									"source" : [ "obj-1", 0 ]
								}

							}
, 							{
								"patchline" : 								{
									"destination" : [ "obj-1", 0 ],
									"source" : [ "obj-2", 0 ]
								}

							}
 ]
					}
,
					"patching_rect" : [ 15.0, 502.5, 584.650024, 23.0 ],
					"style" : "",
					"text" : "gen~"
				}

			}
, 			{
				"box" : 				{
					"attr" : "max_length",
					"fontface" : 0,
					"fontname" : "Lato",
					"fontsize" : 12.0,
					"id" : "obj-19",
					"maxclass" : "attrui",
					"numinlets" : 1,
					"numoutlets" : 1,
					"outlettype" : [ "" ],
					"patching_rect" : [ 34.0, 252.5, 166.0, 23.0 ],
					"style" : ""
				}

			}
, 			{
				"box" : 				{
					"attr" : "crossings",
					"fontface" : 0,
					"fontname" : "Lato",
					"fontsize" : 12.0,
					"id" : "obj-21",
					"maxclass" : "attrui",
					"numinlets" : 1,
					"numoutlets" : 1,
					"outlettype" : [ "" ],
					"patching_rect" : [ 34.0, 225.5, 150.0, 23.0 ],
					"style" : ""
				}

			}
, 			{
				"box" : 				{
					"attr" : "repeats",
					"fontface" : 0,
					"fontname" : "Lato",
					"fontsize" : 12.0,
					"id" : "obj-27",
					"maxclass" : "attrui",
					"numinlets" : 1,
					"numoutlets" : 1,
					"outlettype" : [ "" ],
					"patching_rect" : [ 34.0, 398.5, 150.0, 23.0 ],
					"style" : ""
				}

			}
, 			{
				"box" : 				{
					"attr" : "rate",
					"fontface" : 0,
					"fontname" : "Lato",
					"fontsize" : 12.0,
					"id" : "obj-28",
					"maxclass" : "attrui",
					"numinlets" : 1,
					"numoutlets" : 1,
					"outlettype" : [ "" ],
					"patching_rect" : [ 34.0, 425.5, 150.0, 23.0 ],
					"style" : ""
				}

			}
 ],
		"lines" : [ 			{
				"patchline" : 				{
					"destination" : [ "obj-2", 1 ],
					"midpoints" : [ 24.5, 530.5, 47.5, 530.5 ],
					"order" : 1,
					"source" : [ "obj-1", 0 ]
				}

			}
, 			{
				"patchline" : 				{
					"destination" : [ "obj-2", 0 ],
					"order" : 2,
					"source" : [ "obj-1", 0 ]
				}

			}
, 			{
				"patchline" : 				{
					"destination" : [ "obj-24", 0 ],
					"midpoints" : [ 24.5, 529.5, 88.75, 529.5 ],
					"order" : 0,
					"source" : [ "obj-1", 0 ]
				}

			}
, 			{
				"patchline" : 				{
					"destination" : [ "obj-1", 0 ],
					"midpoints" : [ 43.5, 278.5, 24.5, 278.5 ],
					"source" : [ "obj-19", 0 ]
				}

			}
, 			{
				"patchline" : 				{
					"destination" : [ "obj-4", 1 ],
					"source" : [ "obj-2", 1 ]
				}

			}
, 			{
				"patchline" : 				{
					"destination" : [ "obj-4", 0 ],
					"source" : [ "obj-2", 0 ]
				}

			}
, 			{
				"patchline" : 				{
					"destination" : [ "obj-1", 0 ],
					"midpoints" : [ 43.5, 253.0, 24.5, 253.0 ],
					"source" : [ "obj-21", 0 ]
				}

			}
, 			{
				"patchline" : 				{
					"destination" : [ "obj-1", 0 ],
					"midpoints" : [ 43.5, 422.5, 24.5, 422.5 ],
					"source" : [ "obj-27", 0 ]
				}

			}
, 			{
				"patchline" : 				{
					"destination" : [ "obj-1", 0 ],
					"midpoints" : [ 43.5, 450.0, 24.5, 450.0 ],
					"source" : [ "obj-28", 0 ]
				}

			}
, 			{
				"patchline" : 				{
					"destination" : [ "obj-49", 0 ],
					"order" : 1,
					"source" : [ "obj-40", 0 ]
				}

			}
, 			{
				"patchline" : 				{
					"destination" : [ "obj-57", 0 ],
					"order" : 0,
					"source" : [ "obj-40", 0 ]
				}

			}
, 			{
				"patchline" : 				{
					"destination" : [ "obj-1", 0 ],
					"source" : [ "obj-46", 0 ]
				}

			}
, 			{
				"patchline" : 				{
					"destination" : [ "obj-52", 0 ],
					"order" : 0,
					"source" : [ "obj-49", 0 ]
				}

			}
, 			{
				"patchline" : 				{
					"destination" : [ "obj-53", 0 ],
					"order" : 1,
					"source" : [ "obj-49", 0 ]
				}

			}
, 			{
				"patchline" : 				{
					"destination" : [ "obj-1", 0 ],
					"source" : [ "obj-51", 0 ]
				}

			}
, 			{
				"patchline" : 				{
					"destination" : [ "obj-51", 0 ],
					"source" : [ "obj-52", 0 ]
				}

			}
, 			{
				"patchline" : 				{
					"destination" : [ "obj-46", 0 ],
					"source" : [ "obj-53", 0 ]
				}

			}
, 			{
				"patchline" : 				{
					"destination" : [ "obj-52", 4 ],
					"source" : [ "obj-55", 0 ]
				}

			}
, 			{
				"patchline" : 				{
					"destination" : [ "obj-1", 0 ],
					"source" : [ "obj-56", 0 ]
				}

			}
, 			{
				"patchline" : 				{
					"destination" : [ "obj-56", 0 ],
					"source" : [ "obj-57", 0 ]
				}

			}
, 			{
				"patchline" : 				{
					"destination" : [ "obj-57", 4 ],
					"source" : [ "obj-58", 0 ]
				}

			}
, 			{
				"patchline" : 				{
					"destination" : [ "obj-1", 0 ],
					"source" : [ "obj-7", 0 ]
				}

			}
 ],
		"parameters" : 		{
			"obj-7::obj-21::obj-6" : [ "live.tab[3]", "live.tab[1]", 0 ],
			"obj-7::obj-35" : [ "[5]", "Level", 0 ],
			"obj-2" : [ "live.gain~", "live.gain~", 0 ]
		}
,
		"dependency_cache" : [ 			{
				"name" : "demosound.maxpat",
				"bootpath" : "C74:/help/msp",
				"type" : "JSON",
				"implicit" : 1
			}
, 			{
				"name" : "sine.svg",
				"bootpath" : "C74:/media/max/picts/m4l-picts",
				"type" : "svg ",
				"implicit" : 1
			}
, 			{
				"name" : "saw.svg",
				"bootpath" : "C74:/media/max/picts/m4l-picts",
				"type" : "svg ",
				"implicit" : 1
			}
, 			{
				"name" : "square.svg",
				"bootpath" : "C74:/media/max/picts/m4l-picts",
				"type" : "svg ",
				"implicit" : 1
			}
, 			{
				"name" : "random.svg",
				"bootpath" : "C74:/media/max/picts/m4l-picts",
				"type" : "svg ",
				"implicit" : 1
			}
 ],
		"autosave" : 0,
		"styles" : [ 			{
				"name" : "AudioStatus_Menu",
				"default" : 				{
					"bgfillcolor" : 					{
						"type" : "color",
						"color" : [ 0.294118, 0.313726, 0.337255, 1 ],
						"color1" : [ 0.454902, 0.462745, 0.482353, 0.0 ],
						"color2" : [ 0.290196, 0.309804, 0.301961, 1.0 ],
						"angle" : 270.0,
						"proportion" : 0.39,
						"autogradient" : 0
					}

				}
,
				"parentstyle" : "",
				"multi" : 0
			}
 ]
	}

}
